<?xml version="1.0" encoding="utf-8"?>
<!-- Generator: Adobe Illustrator 22.1.0, SVG Export Plug-In . SVG Version: 6.00 Build 0)  -->
<svg version="1.1" id="Layer_1" xmlns="http://www.w3.org/2000/svg" xmlns:xlink="http://www.w3.org/1999/xlink" x="0px" y="0px"
	 viewBox="0 0 43 41" style="enable-background:new 0 0 43 41;" xml:space="preserve">
<title>stethoscope1</title>
<desc>Created with Sketch.</desc>
<g id="Page-1">
	<g id="Artboard-2" transform="translate(-130.000000, -125.000000)">
		<g id="stethoscope1" transform="translate(130.000000, 125.000000)">
			<path fill="#000" id="Shape" d="M42.9,23c-0.3-2.2-2-3.9-4.2-4.3v-1.3c0-3.6-2.7-6.5-6.1-6.5c-3.3,0-6,2.8-6.1,6.3h0l0,0v14.1
				c0,4.5-3.4,8.2-7.5,8.2s-7.5-3.7-7.5-8.2v-1.2c1,0,2.1-0.8,2.1-2.9v-1.8c4.6-1.2,7.9-5.1,7.9-9.6v-1.5h-1.4L20,5
				c0-1.7-1.2-3.2-2.9-3.5c-0.4-1.1-1.6-1.7-2.7-1.4c-1.1,0.4-1.7,1.6-1.4,2.7c0.4,1.1,1.6,1.7,2.7,1.4C16.3,4,16.8,3.6,17,3
				C18,3.2,18.6,4.1,18.6,5l0,9.3h-1.4v1.5c-0.1,2.5-1.7,4.7-4.1,5.4c-1.3,0.4-2.7,0.4-3.9,0c-2.4-0.7-4.1-2.9-4.1-5.4v-1.5H2.9V5
				c0-1,0.7-1.8,1.6-2.1c0.4,1.1,1.7,1.7,2.8,1.2s1.7-1.7,1.2-2.8S6.8-0.3,5.7,0.2C5.1,0.4,4.6,0.9,4.4,1.5c-1.7,0.3-3,1.8-3,3.5
				v9.3H0v1.5c0,4.5,3.3,8.4,7.9,9.6v1.8c0,2.1,1.1,2.9,2.1,2.9v1.2c0,5.3,4,9.6,9,9.6s9-4.3,9-9.6V17.3c0.1-2.7,2.2-4.9,4.7-4.9
				c2.6,0,4.7,2.3,4.7,5.1v1.3c-2.7,0.4-4.6,2.9-4.2,5.7c0.4,2.7,2.9,4.7,5.7,4.3C41.4,28.3,43.3,25.7,42.9,23z M15,2.9
				c-0.4,0-0.7-0.3-0.7-0.7s0.3-0.7,0.7-0.7s0.7,0.3,0.7,0.7S15.4,2.9,15,2.9z M6.4,1.4c0.4,0,0.7,0.3,0.7,0.7S6.8,2.9,6.4,2.9
				S5.7,2.6,5.7,2.2S6.1,1.4,6.4,1.4z M1.4,15.8L1.4,15.8l2.1-0.1v0.1c0.1,3.1,2.1,5.8,5.1,6.7c1.6,0.5,3.2,0.5,4.8,0
				c3-0.9,5.1-3.6,5.1-6.7v-0.1h1.4v0.1c0,4-3.1,7.5-7.3,8.4c-1,0.2-2,0.2-3,0.1c-0.3,0-0.7-0.1-1-0.2C4.5,23.4,1.4,19.8,1.4,15.8z
				 M10,28.7c-0.6,0-0.7-1-0.7-1.4v-1.5c0.1,0,0.1,0,0.2,0c0.1,0,0.1,0,0.2,0c0.3,0,0.7,0.1,1,0.1h0c0.3,0,0.7,0,1-0.1
				c0.1,0,0.1,0,0.2,0c0.1,0,0.1,0,0.2,0v1.5c0,0.4-0.1,1.4-0.7,1.4H10z M38,27.3c-2,0-3.6-1.6-3.6-3.6s1.6-3.6,3.6-3.6
				s3.6,1.6,3.6,3.6C41.6,25.7,40,27.3,38,27.3z"/>
			<path fill="#000" id="Shape_1_" d="M38,22c-1.1,0-2,0.9-2,2s0.9,2,2,2s2-0.9,2-2S39.1,22,38,22z M38,24.7c-0.4,0-0.7-0.3-0.7-0.7
				s0.3-0.7,0.7-0.7s0.7,0.3,0.7,0.7S38.4,24.7,38,24.7z"/>
		</g>
	</g>
</g>
</svg>
