<?xml version="1.0" encoding="utf-8"?>
<!-- Generator: Adobe Illustrator 22.1.0, SVG Export Plug-In . SVG Version: 6.00 Build 0)  -->
<svg version="1.1" id="Layer_1" xmlns="http://www.w3.org/2000/svg" xmlns:xlink="http://www.w3.org/1999/xlink" x="0px" y="0px"
	 viewBox="0 0 87 84" style="enable-background:new 0 0 87 84;" xml:space="preserve">
<title>Group 2</title>
<desc>Created with Sketch.</desc>
<g id="Page-1">
	<g id="Doctorak-Home-Page" transform="translate(-299.000000, -984.000000)">
		<g id="Group-2" transform="translate(299.000000, 984.000000)">
			<g id="new">
				<path id="Shape" d="M81,34c-1.6-0.5-2.8-1.6-3.3-3.2c-0.5-1.6-0.2-3.2,0.8-4.5c2.3-3,2.4-6.9,0.1-10c-2.2-3.1-5.9-4.2-9.5-3
					c-1.5,0.6-3.2,0.3-4.5-0.7c-1.3-1-2.1-2.5-2-4.1c0.1-3.8-2.1-7-5.7-8.2c-3.6-1.2-7.3,0.1-9.4,3.2c-0.9,1.4-2.4,2.1-4,2.1
					c-1.6,0-3.1-0.8-4-2.1c-2.1-3.1-5.8-4.4-9.4-3.2c-3.6,1.2-5.8,4.4-5.7,8.2c0,1.6-0.7,3.1-2,4.1c-1.3,1-3,1.2-4.5,0.7
					c-3.6-1.3-7.3-0.1-9.5,3s-2.2,7,0.1,10c1,1.3,1.3,2.9,0.8,4.5C8.7,32.4,7.5,33.5,6,34c-3.6,1.1-6,4.2-6,8c0,3.8,2.3,6.9,6,8
					c1.6,0.5,2.8,1.6,3.3,3.2s0.2,3.2-0.8,4.5c-2.3,3-2.4,6.9-0.1,10c2.2,3.1,5.9,4.2,9.5,3c1.5-0.6,3.2-0.3,4.5,0.7
					c1.3,1,2.1,2.5,2,4.1c-0.1,3.8,2.1,7,5.7,8.2c0.9,0.3,1.8,0.4,2.7,0.4c2.7,0,5.1-1.3,6.8-3.6c0.9-1.4,2.4-2.1,4-2.1
					c1.6,0,3.1,0.8,4,2.1c2.1,3.1,5.8,4.4,9.4,3.2c3.6-1.2,5.8-4.4,5.7-8.2c0-1.6,0.7-3.1,2-4.1c1.3-1,3-1.2,4.5-0.7
					c3.6,1.3,7.3,0.1,9.5-3c2.2-3.1,2.2-7-0.1-10c-1-1.3-1.3-2.9-0.8-4.5s1.7-2.7,3.3-3.2c3.6-1.1,6-4.2,6-8
					C87,38.2,84.7,35.1,81,34z M80.1,46.7c-2.6,0.8-4.7,2.8-5.5,5.4c-0.8,2.6-0.4,5.5,1.3,7.7c1.6,2.1,1.1,4.4,0.1,5.9
					c-1,1.4-3.1,2.6-5.6,1.7c-2.6-0.9-5.4-0.5-7.7,1.1c-2.2,1.6-3.5,4.2-3.4,7c0.1,2.7-1.7,4.3-3.4,4.8c-1.7,0.5-4,0.3-5.5-1.9
					c-1.5-2.3-4.1-3.6-6.8-3.6c-2.7,0-5.3,1.4-6.8,3.6c-1.5,2.2-3.9,2.4-5.5,1.9c-1.7-0.5-3.4-2.1-3.4-4.8c0.1-2.8-1.2-5.4-3.4-7
					c-1.4-1-3.1-1.6-4.9-1.6c-0.9,0-1.9,0.2-2.8,0.5c-2.5,0.9-4.6-0.3-5.6-1.7c-1-1.4-1.6-3.7,0.1-5.9c1.7-2.2,2.2-5,1.3-7.7
					c-0.8-2.6-2.9-4.6-5.5-5.4c-2.6-0.8-3.5-2.9-3.5-4.7c0-1.8,0.9-3.9,3.5-4.7c2.6-0.8,4.7-2.8,5.5-5.4s0.4-5.5-1.3-7.7
					c-1.6-2.1-1.1-4.4-0.1-5.9c1-1.4,3.1-2.6,5.6-1.7c2.6,0.9,5.4,0.5,7.7-1.1c2.2-1.6,3.5-4.2,3.4-7c-0.1-2.7,1.7-4.3,3.4-4.8
					c1.7-0.5,4-0.3,5.5,1.9c1.5,2.3,4.1,3.6,6.8,3.6c2.7,0,5.3-1.4,6.8-3.6c1.5-2.2,3.9-2.4,5.5-1.9s3.4,2.1,3.4,4.8
					c-0.1,2.8,1.2,5.4,3.4,7c2.2,1.6,5.1,2,7.7,1.1c2.5-0.9,4.6,0.3,5.6,1.7c1,1.4,1.6,3.7-0.1,5.9c-1.7,2.2-2.2,5-1.3,7.7
					c0.8,2.6,2.9,4.6,5.5,5.4c2.6,0.8,3.5,2.9,3.5,4.7S82.7,45.9,80.1,46.7z"/>
				<path id="Shape_1_" d="M43.4,14.5c-5.9,0-11.5,1.9-16.1,5.5c-4.5,3.5-7.9,8.5-9.5,14C17.5,35,18,36,18.9,36.3
					c0.2,0,0.3,0.1,0.5,0.1c0.7,0,1.4-0.5,1.6-1.2c1.4-4.8,4.3-9.2,8.3-12.3c4.1-3.2,9-4.8,14.1-4.8c0.9,0,1.7-0.8,1.7-1.7
					C45.1,15.3,44.4,14.5,43.4,14.5z"/>
				<path id="Shape_2_" d="M64.6,56.9c-0.7-0.6-1.8-0.5-2.4,0.3C57.6,62.8,50.9,66,43.6,66c-1,0-1.7,0.8-1.7,1.7
					c0,0.9,0.8,1.7,1.7,1.7c8.3,0,16-3.7,21.3-10.1C65.5,58.6,65.3,57.5,64.6,56.9z"/>
				<ellipse id="Oval" cx="66.1" cy="52.5" rx="1.6" ry="1.6"/>
			</g>
		</g>
	</g>
</g>
</svg>
