<?xml version="1.0" encoding="utf-8"?>
<!-- Generator: Adobe Illustrator 22.1.0, SVG Export Plug-In . SVG Version: 6.00 Build 0)  -->
<svg version="1.1" id="Layer_1" xmlns="http://www.w3.org/2000/svg" xmlns:xlink="http://www.w3.org/1999/xlink" x="0px" y="0px"
	 viewBox="0 0 39 41" style="enable-background:new 0 0 39 41;" xml:space="preserve">
<title>hospital</title>
<desc>Created with Sketch.</desc>
<g id="Page-1">
	<g id="Artboard-2" transform="translate(-211.000000, -125.000000)">
		<g id="hospital" transform="translate(211.000000, 125.000000)">
			<path id="Shape" d="M31,18v4h6v-4H31z M35.5,20.7h-3v-1.3h3V20.7z"/>
			<path id="Shape_1_" d="M31,23v4h6v-4H31z M35.5,25.7h-3v-1.3h3V25.7z"/>
			<path id="Shape_2_" d="M31,29v4h6v-4H31z M35.5,31.7h-3v-1.3h3V31.7z"/>
			<path id="Shape_3_" d="M31,34v4h6v-4H31z M35.5,36.7h-3v-1.3h3V36.7z"/>
			<path id="Shape_4_" d="M29.2,15V0H9.8v15H0v26h39V15H29.2z M9.8,39.6H1.4V16.4h8.4V39.6z M18.8,39.6h-3.5V27.3h3.5V39.6z
				 M23.7,39.6h-3.5V27.3h3.5V39.6z M27.9,39.6h-2.8V26H13.9v13.7h-2.8V1.4h16.7V39.6z M37.6,39.6h-8.4V16.4h8.4V39.6z"/>
			<path id="Shape_5_" d="M2,18v4h6v-4H2z M6.5,20.7h-3v-1.3h3V20.7z"/>
			<path id="Shape_6_" d="M2,23v4h6v-4H2z M6.5,25.7h-3v-1.3h3V25.7z"/>
			<path id="Shape_7_" d="M2,29v4h6v-4H2z M6.5,31.7h-3v-1.3h3V31.7z"/>
			<path id="Shape_8_" d="M2,34v4h6v-4H2z M6.5,36.7h-3v-1.3h3V36.7z"/>
			<g id="moon-shape-of-crescent-phase" transform="translate(15.000000, 4.000000)">
				<path id="Shape_9_" d="M8,1.9c1.3,0,2.4,0.6,3,1.5C10.2,1.4,8.1,0,5.6,0C2.5,0,0,2.2,0,5s2.5,5,5.6,5c2.5,0,4.6-1.4,5.4-3.4
					c-0.6,0.9-1.7,1.5-3,1.5C6.1,8.1,4.5,6.7,4.5,5C4.5,3.3,6.1,1.9,8,1.9z"/>
			</g>
		</g>
	</g>
</g>
</svg>
