<svg height="511pt" viewBox="-28 0 511 511.99904" width="511pt" xmlns="http://www.w3.org/2000/svg"><path d="m187.992188 150.011719c28.949218 0 52.5-23.550781 52.5-52.5 0 0-.003907-52.457031 0-57.089844 0-3.070313-.597657-6.070313-1.777344-8.917969-2.914063-7.03125-8.910156-12.011718-15.984375-13.730468-1.714844-7.074219-6.699219-13.070313-13.726563-15.984376-7.035156-2.910156-14.792968-2.195312-21.011718 1.59375-6.214844-3.785156-13.976563-4.503906-21.007813-1.59375-7.03125 2.914063-12.011719 8.910157-13.730469 15.984376-7.074218 1.71875-13.070312 6.699218-15.980468 13.726562-1.183594 2.851562-1.78125 5.851562-1.777344 8.921875v57.089844c0 28.945312 23.550781 52.5 52.496094 52.5zm0-15c-20.675782 0-37.496094-16.824219-37.496094-37.5s16.820312-37.5 37.496094-37.5c20.679687 0 37.5 16.824219 37.5 37.5s-16.824219 37.5-37.5 37.5zm-37.496094-94.597657c0-1.085937.210937-2.152343.632812-3.171874 1.394532-3.363282 4.761719-5.417969 8.382813-5.09375 2.203125.191406 4.382812-.601563 5.949219-2.167969 1.566406-1.566407 2.359374-3.746094 2.167968-5.953125-.3125-3.617188 1.734375-6.988282 5.09375-8.378906 3.359375-1.390626 7.191406-.457032 9.527344 2.324218 1.425781 1.695313 3.527344 2.671875 5.742188 2.671875 2.214843 0 4.316406-.976562 5.742187-2.671875 2.335937-2.78125 6.164063-3.714844 9.527344-2.324218 3.359375 1.390624 5.40625 4.761718 5.09375 8.378906-.191407 2.207031.601562 4.386718 2.167969 5.953125 1.566406 1.566406 3.746093 2.359375 5.949218 2.167969 3.613282-.320313 6.988282 1.730468 8.382813 5.09375.421875 1.019531.636719 2.085937.636719 3.167968-.003907 1.757813-.003907 10.378906-.003907 20.410156-9.535156-9.746093-22.816406-15.808593-37.496093-15.808593-14.679688 0-27.960938 6.0625-37.496094 15.808593 0-10.03125 0-18.652343 0-20.40625zm0 0"/><path d="m250.363281 497.382812-24.871093-8.292968v-155.550782h22.496093c4.144531 0 7.5-3.359374 7.5-7.5v-126.03125h67.5c4.132813 0 7.5 3.363282 7.5 7.5 0 4.136719-3.367187 7.5-7.5 7.5h-15c-4.144531 0-7.5 3.359376-7.5 7.5 0 4.140626 3.355469 7.5 7.5 7.5h15c12.40625 0 22.5-10.09375 22.5-22.5s-10.09375-22.5-22.5-22.5h-68.546875c-3.273437-11.527343-13.886718-20-26.449218-20h-9.992188c-.019531 0-59.996094 0-59.996094 0-.019531 0-10.011718 0-10.011718 0-15.164063 0-27.496094 12.335938-27.496094 27.5v133.53125c0 4.140626 3.355468 7.5 7.496094 7.5h22.5v155.554688l-24.871094 8.289062c-3.929688 1.308594-6.050782 5.554688-4.742188 9.488282 1.046875 3.140625 3.972656 5.128906 7.113282 5.128906.785156 0 1.585937-.125 2.371093-.386719l30-10c3.0625-1.023437 5.128907-3.886719 5.128907-7.117187v-154.566406c6.972656 3.308593 14.640624 5.070312 22.5 5.070312 7.859374 0 15.527343-1.761719 22.496093-5.070312v154.566406c0 3.230468 2.066407 6.09375 5.128907 7.117187l30 10c.785156.261719 1.585937.386719 2.371093.386719 3.140625 0 6.066407-1.988281 7.117188-5.128906 1.308593-3.933594-.8125-8.179688-4.742188-9.488282zm-9.871093-304.875v126.03125h-15v-138.53125h2.5c6.890624 0 12.5 5.609376 12.5 12.5zm-75-12.5h45v104.996094h-45zm-29.996094 138.53125v-126.03125c0-6.890624 5.605468-12.5 12.5-12.5h2.5v138.53125zm52.496094 11.464844c-8.160157 0-16.03125-2.648437-22.5-7.503906v-22.496094h45v22.496094c-6.46875 4.855469-14.339844 7.503906-22.5 7.503906zm0 0"/><path d="m97.996094 165.007812h-89.996094c-4.144531 0-7.5 3.359376-7.5 7.5v119.996094c0 4.140625 3.355469 7.5 7.5 7.5h89.996094c4.140625 0 7.5-3.359375 7.5-7.5v-119.996094c0-1.988281-.789063-3.898437-2.195313-5.300781-1.40625-1.410156-3.316406-2.199219-5.304687-2.199219zm-52.5 15h15v15h-15zm45 104.996094h-74.996094v-104.996094h15v22.5c0 4.140626 3.355469 7.5 7.5 7.5h29.996094c4.144531 0 7.5-3.359374 7.5-7.5v-22.5h15zm0 0"/><path d="m67.996094 225.007812h-29.996094c-4.144531 0-7.5 3.355469-7.5 7.5 0 4.140626 3.355469 7.5 7.5 7.5h29.996094c4.144531 0 7.5-3.359374 7.5-7.5 0-4.144531-3.355469-7.5-7.5-7.5zm0 0"/><path d="m67.996094 255.007812h-29.996094c-4.144531 0-7.5 3.355469-7.5 7.496094 0 4.144532 3.355469 7.5 7.5 7.5h29.996094c4.144531 0 7.5-3.355468 7.5-7.5 0-4.140625-3.355469-7.496094-7.5-7.496094zm0 0"/><path d="m305.488281 474.496094c0 4.144531-3.355469 7.5-7.5 7.5-4.140625 0-7.5-3.355469-7.5-7.5 0-4.140625 3.359375-7.5 7.5-7.5 4.144531 0 7.5 3.359375 7.5 7.5zm0 0"/><path d="m447.984375 467h-112.496094v-194.496094c0-15.160156-12.335937-27.5-27.5-27.5-4.140625 0-7.5 3.359375-7.5 7.5 0 4.144532 3.359375 7.5 7.5 7.5 6.894531 0 12.5 5.609375 12.5 12.5v59.5h-2.625c-15.164062 0-27.5 12.335938-27.5 27.507813l.117188 78.242187c-17.089844 3.488282-29.988281 18.636719-29.988281 36.742188 0 20.679687 16.820312 37.5 37.496093 37.5 18.109375 0 33.261719-12.902344 36.746094-30h113.25c4.140625 0 7.5-3.355469 7.5-7.5 0-4.140625-3.359375-7.496094-7.5-7.496094zm-130.121094-119.996094h2.625v97.515625c-4.363281-3.285156-9.464843-5.640625-15.007812-6.769531l-.117188-78.25c0-6.890625 5.605469-12.496094 12.5-12.496094zm-19.875 149.992188c-12.40625 0-22.5-10.089844-22.5-22.496094 0-12.410156 10.09375-22.5 22.5-22.5s22.5 10.089844 22.5 22.5c0 12.40625-10.09375 22.496094-22.5 22.496094zm0 0"/><path d="m447.984375 332.003906h-89.996094c-4.144531 0-7.5 3.355469-7.5 7.5v104.996094c0 4.140625 3.355469 7.5 7.5 7.5h89.996094c4.140625 0 7.5-3.359375 7.5-7.5v-104.996094c0-4.144531-3.359375-7.5-7.5-7.5zm-52.5 15h15v37.496094h-15zm45 89.996094h-74.996094v-89.996094h14.996094v44.996094c0 4.144531 3.359375 7.5 7.5 7.5h30c4.144531 0 7.5-3.355469 7.5-7.5v-44.996094h15zm0 0"/></svg>