<?xml version="1.0" encoding="utf-8"?>
<!-- Generator: Adobe Illustrator 22.1.0, SVG Export Plug-In . SVG Version: 6.00 Build 0)  -->
<svg version="1.1" id="Layer_1" xmlns="http://www.w3.org/2000/svg" xmlns:xlink="http://www.w3.org/1999/xlink" x="0px" y="0px"
	 viewBox="0 0 72 71" style="enable-background:new 0 0 72 71;" xml:space="preserve">
<title>calendar</title>
<desc>Created with Sketch.</desc>
<g id="Page-1">
	<g id="Doctorak-Home-Page" transform="translate(-1056.000000, -991.000000)">
		<g id="calendar" transform="translate(1056.000000, 991.000000)">
			<path id="Shape" d="M53.3,5c-0.6-2.8-3.1-5-6.1-5c-0.7,0-1.2,0.6-1.2,1.2s0.6,1.2,1.2,1.2c2.1,0,3.7,1.7,3.7,3.7S49.2,10,47.2,10
				c-0.7,0-1.2,0.6-1.2,1.2s0.6,1.2,1.2,1.2c3,0,5.5-2.1,6.1-5h16.3v8.7H54.6h-2.5H37.2h-2.5H19.9h-2.5H2.5V7.5h17.4h3.7
				c0.7,0,1.2-0.6,1.2-1.2S24.3,5,23.6,5h-2.3c0.5-1.4,1.9-2.5,3.5-2.5c2.1,0,3.7,1.7,3.7,3.7S26.9,10,24.8,10
				c-0.7,0-1.2,0.6-1.2,1.2s0.6,1.2,1.2,1.2c3.4,0,6.2-2.8,6.2-6.2S28.3,0,24.8,0c-3,0-5.5,2.1-6.1,5H0v11.2v3.7v13.7v2.5v14.9v2.5
				V71h17.4h2.5h14.9h2.5h14.9h2.5H72V53.6v-2.5V36.1v-2.5V19.9v-3.7V5H53.3z M37.2,18.7h14.9v14.9H37.2V18.7z M52.1,51.1H37.2V36.1
				h14.9V51.1z M19.9,36.1h14.9v14.9H19.9V36.1z M19.9,18.7h14.9v14.9H19.9V18.7z M2.5,19.9v-1.2h14.9v14.9H2.5V19.9z M2.5,36.1
				h14.9v14.9H2.5V36.1z M2.5,68.5V53.6h14.9v14.9H2.5z M19.9,68.5V53.6h14.9v14.9H19.9z M37.2,68.5V53.6h14.9v14.9H37.2z
				 M69.5,68.5H54.6V53.6h14.9V68.5z M69.5,51.1H54.6V36.1h14.9V51.1z M54.6,33.6V18.7h14.9v1.2v13.7H54.6z"/>
			<path id="Shape_1_" d="M32.2,2.4c1.9,0,3.5,1.6,3.5,3.6s-1.6,3.6-3.5,3.6c-0.6,0-1.2,0.5-1.2,1.2s0.5,1.2,1.2,1.2
				c3.2,0,5.8-2.7,5.8-6s-2.6-6-5.8-6C31.5,0,31,0.5,31,1.2S31.5,2.4,32.2,2.4z"/>
			<path id="Shape_2_" d="M39.2,2.4c1.9,0,3.5,1.6,3.5,3.6s-1.6,3.6-3.5,3.6c-0.6,0-1.2,0.5-1.2,1.2s0.5,1.2,1.2,1.2
				c3.2,0,5.8-2.7,5.8-6s-2.6-6-5.8-6C38.5,0,38,0.5,38,1.2S38.5,2.4,39.2,2.4z"/>
			<path id="Shape_3_" d="M38.4,48.6c0.2,0.2,0.5,0.4,0.8,0.4c0.3,0,0.6-0.1,0.8-0.4l4-4l4,4c0.2,0.2,0.5,0.4,0.8,0.4
				c0.3,0,0.6-0.1,0.8-0.4c0.5-0.5,0.5-1.2,0-1.7l-4-4l4-4c0.5-0.5,0.5-1.2,0-1.7s-1.2-0.5-1.7,0l-4,4l-4-4c-0.5-0.5-1.2-0.5-1.7,0
				s-0.5,1.2,0,1.7l4,4l-4,4C37.9,47.4,37.9,48.2,38.4,48.6z"/>
		</g>
	</g>
</g>
</svg>
