<?xml version="1.0" encoding="utf-8"?>
<!-- Generator: Adobe Illustrator 22.1.0, SVG Export Plug-In . SVG Version: 6.00 Build 0)  -->
<svg version="1.1" id="Layer_1" xmlns="http://www.w3.org/2000/svg" xmlns:xlink="http://www.w3.org/1999/xlink" x="0px" y="0px"
	 viewBox="0 0 88 72" style="enable-background:new 0 0 88 72;" xml:space="preserve">
<title>folder (3)</title>
<desc>Created with Sketch.</desc>
<g id="Page-1">
	<g id="Doctorak-Home-Page" transform="translate(-678.000000, -990.000000)">
		<g id="folder-_x28_3_x29_" transform="translate(678.000000, 990.000000)">
			<path id="Shape" d="M84.3,23.5h-3.7V13.2h-2.9V7.3H36.8L31.6,0H4C1.8,0,0,1.8,0,4v64.2h0c0,0.8,0.2,1.6,0.8,2.3
				c0.7,0.9,1.8,1.5,3,1.5h65.6c1.7,0,3.2-1.1,3.6-2.7l15-41.2v-0.3C88,25.3,86.5,23.5,84.3,23.5z M77.7,23.5H66V22
				c0-0.8-0.7-1.5-1.5-1.5s-1.5,0.7-1.5,1.5v1.5h-7.3V22c0-0.8-0.7-1.5-1.5-1.5s-1.5,0.7-1.5,1.5v1.5h-7.3V22c0-0.8-0.7-1.5-1.5-1.5
				s-1.5,0.7-1.5,1.5v1.5h-7.3V22c0-0.8-0.7-1.5-1.5-1.5s-1.5,0.7-1.5,1.5v1.5h-7.3V22c0-0.8-0.7-1.5-1.5-1.5
				c-0.8,0-1.5,0.7-1.5,1.5v1.5h-3.3c-0.2,0-0.4,0-0.6,0.1c-0.7,0.1-1.4,0.5-1.9,0.9v-8.3h61.6V23.5z M7.3,47.5V25h8.4
				c-0.3,0.4-0.5,0.8-0.6,1.2l-0.5,1.3L7.3,47.5z M13.2,22H9.4l0.9-0.9l2.9-2.9V22z M74.8,10.3v2.9H14.1L10.3,17v-6.7h28.6H74.8z
				 M2.9,4c0-0.6,0.5-1.1,1.1-1.1h26l3.1,4.4H7.3V20l-2.9,2.9v32.5l-1.5,4V4z M70.2,68.4c-0.1,0.4-0.4,0.6-0.8,0.6H3.8
				c-0.4,0-0.6-0.2-0.7-0.3c-0.1-0.1-0.2-0.4-0.2-0.6l1.5-4.1v0l13.4-36.9l0-0.1c0.1-0.4,0.4-0.6,0.8-0.6h62h3.7
				c0.6,0,0.7,0.8,0.7,1.2L70.2,68.4z"/>
		</g>
	</g>
</g>
</svg>
