<?xml version="1.0" encoding="utf-8"?>
<!-- Generator: Adobe Illustrator 22.1.0, SVG Export Plug-In . SVG Version: 6.00 Build 0)  -->
<svg version="1.1" id="Layer_1" xmlns="http://www.w3.org/2000/svg" xmlns:xlink="http://www.w3.org/1999/xlink" x="0px" y="0px"
	 viewBox="0 0 34 43" style="enable-background:new 0 0 34 43;" xml:space="preserve">
<title>file (1)</title>
<desc>Created with Sketch.</desc>
<g id="Page-1">
	<g id="Artboard-2" transform="translate(-464.000000, -125.000000)">
		<g id="file-_x28_1_x29_" transform="translate(464.000000, 125.000000)">
			<path id="Shape" d="M27.3,18H9.7C9.3,18,9,18.2,9,18.5S9.3,19,9.7,19h17.6c0.4,0,0.7-0.2,0.7-0.5S27.7,18,27.3,18z"/>
			<path id="Shape_1_" d="M9.8,13h7.5c0.4,0,0.8-0.2,0.8-0.5S17.7,12,17.2,12H9.8C9.3,12,9,12.2,9,12.5S9.3,13,9.8,13z"/>
			<path id="Shape_2_" d="M27.3,24H9.7C9.3,24,9,24.2,9,24.5S9.3,25,9.7,25h17.6c0.4,0,0.7-0.2,0.7-0.5S27.7,24,27.3,24z"/>
			<path id="Shape_3_" d="M27.3,29H9.7C9.3,29,9,29.2,9,29.5S9.3,30,9.7,30h17.6c0.4,0,0.7-0.2,0.7-0.5S27.7,29,27.3,29z"/>
			<path id="Shape_4_" d="M27.3,35H9.7C9.3,35,9,35.2,9,35.5S9.3,36,9.7,36h17.6c0.4,0,0.7-0.2,0.7-0.5S27.7,35,27.3,35z"/>
			<path id="Shape_5_" d="M30.5,10.5V0H0v39.4h3.5V43H34V14L30.5,10.5z M24.1,6l6.4,6.4l1.1,1.1h-7.5V6z M1.4,38V1.4H29V9l-5.4-5.4
				H3.5V38H1.4z M5,41.6v-2.1V5h17.7v10h9.9v26.5H5z"/>
		</g>
	</g>
</g>
</svg>
