<?xml version="1.0" encoding="utf-8"?>
<!-- Generator: Adobe Illustrator 22.1.0, SVG Export Plug-In . SVG Version: 6.00 Build 0)  -->
<svg version="1.1" id="Layer_1" xmlns="http://www.w3.org/2000/svg" xmlns:xlink="http://www.w3.org/1999/xlink" x="0px" y="0px"
	 viewBox="0 0 43 43" style="enable-background:new 0 0 43 43;" xml:space="preserve">
<title>flask</title>
<desc>Created with Sketch.</desc>
<g id="Page-1">
	<g id="Artboard-2" transform="translate(-383.000000, -125.000000)">
		<g id="flask" transform="translate(383.000000, 125.000000)">
			<path id="Shape" d="M32.1,14.8V5.4H33c1.5,0,2.7-1.2,2.7-2.7S34.5,0,33,0H24c-1.5,0-2.7,1.2-2.7,2.7s1.2,2.7,2.7,2.7h0.9v9.4
				C18.5,16.4,14,22.1,14,28.7C14,36.6,20.5,43,28.5,43c0.2,0,0.5,0,0.7,0c6.4-0.3,11.8-4.7,13.4-10.7
				C44.5,24.6,39.9,16.8,32.1,14.8z M29.1,41.2c-0.2,0-0.4,0-0.6,0c-7,0-12.7-5.6-12.7-12.5c0-6,4.2-11.1,10.1-12.3
				c0.4-0.1,0.7-0.5,0.7-0.9V5.4h1.8V3.6H24c-0.5,0-0.9-0.4-0.9-0.9s0.4-0.9,0.9-0.9H33c0.5,0,0.9,0.4,0.9,0.9S33.5,3.6,33,3.6h-1.8
				c-0.5,0-0.9,0.4-0.9,0.9v11c0,0.4,0.3,0.8,0.7,0.9c5.7,1.1,9.8,6,10.1,11.7C41.5,35,36.1,40.9,29.1,41.2z"/>
			<path id="Shape_1_" d="M39.7,28.2C39.5,28.1,39.3,28,39,28c-1.7,0.1-3.3,0.3-4.8,0.9c-1.7,0.6-3.4,0.8-5.2,0.8
				c-1.8,0-3.5-0.2-5.2-0.8c-1.6-0.5-3.2-0.8-4.8-0.9c-0.2,0-0.5,0.1-0.7,0.2c-0.2,0.2-0.3,0.4-0.3,0.6C18,34.5,22.9,39,29,39
				c6.1,0,11-4.5,11-10.2C40,28.6,39.9,28.4,39.7,28.2z M30,37.3c-5,0.5-9.6-2.8-10.1-7.5c1.1,0.1,2.2,0.4,3.3,0.7
				c1.9,0.6,3.8,0.9,5.8,0.9c2,0,3.9-0.3,5.8-0.9c1.1-0.4,2.2-0.6,3.3-0.7C37.6,33.7,34.3,36.8,30,37.3z"/>
			<path id="Shape_2_" d="M29,18v1.6c2.2,0,4.3,0.9,5.8,2.4l1.2-1.1C34.1,19,31.6,18,29,18z"/>
			<path id="Shape_3_" d="M23,12H0.9C0.4,12,0,12.4,0,12.9s0.4,0.9,0.9,0.9c0.1,0,3.5,0,3.5,3.5v21.3c0,2.4,2,4.4,4.4,4.4h9.7v-1.8
				H8.8c-1.5,0-2.7-1.2-2.7-2.7V17.3C6.2,16,5.8,14.8,5,13.8h18V12z"/>
			<rect id="Rectangle-path" x="5" y="17" width="7" height="2"/>
			<rect id="Rectangle-path_1_" x="5" y="21" width="5" height="2"/>
			<rect id="Rectangle-path_2_" x="5" y="26" width="7" height="2"/>
			<rect id="Rectangle-path_3_" x="5" y="30" width="5" height="2"/>
			<rect id="Rectangle-path_4_" x="5" y="35" width="7" height="2"/>
			<path id="Shape_4_" d="M3.5,0C1.6,0,0,1.6,0,3.5S1.6,7,3.5,7S7,5.4,7,3.5S5.4,0,3.5,0z M3.5,5.3c-1,0-1.7-0.8-1.7-1.7
				s0.8-1.7,1.7-1.7c1,0,1.7,0.8,1.7,1.7S4.5,5.3,3.5,5.3z"/>
			<path id="Shape_5_" d="M11.5,5C10.1,5,9,6.1,9,7.5s1.1,2.5,2.5,2.5S14,8.9,14,7.5S12.9,5,11.5,5z M11.5,8.3
				c-0.5,0-0.8-0.4-0.8-0.8s0.4-0.8,0.8-0.8s0.8,0.4,0.8,0.8C12.3,8,12,8.3,11.5,8.3z"/>
		</g>
	</g>
</g>
</svg>
