<?xml version="1.0" encoding="utf-8"?>
<!-- Generator: Adobe Illustrator 22.1.0, SVG Export Plug-In . SVG Version: 6.00 Build 0)  -->
<svg version="1.1" id="Layer_1" xmlns="http://www.w3.org/2000/svg" xmlns:xlink="http://www.w3.org/1999/xlink" x="0px" y="0px"
	 viewBox="0 0 43 43" style="enable-background:new 0 0 43 43;" xml:space="preserve">
<title>caduceus</title>
<desc>Created with Sketch.</desc>
<g id="Page-1">
	<g id="Artboard-2" transform="translate(-302.000000, -125.000000)">
		<g id="caduceus" transform="translate(302.000000, 125.000000)">
			<path id="Shape" d="M30.1,2.9c-2,0-3.6,1.6-3.6,3.6c0,1.2-1,2.1-2.1,2.1h-0.7V6.4c1.6-1.2,1.9-3.4,0.7-5s-3.4-1.9-5-0.7
				s-1.9,3.4-0.7,5c0.2,0.3,0.4,0.5,0.7,0.7v2.2h-0.7c-1.2,0-2.1-1-2.1-2.1c0-2-1.6-3.6-3.6-3.6H0v0.7c0,1.7,1.2,3.2,2.9,3.5
				C3.2,8.6,4.3,9.7,5.8,10c0.3,1.7,1.8,2.9,3.5,2.9h10v7.2h-5c-0.4,0-0.7-0.3-0.7-0.7c0-0.4,0.3-0.7,0.7-0.7h1.4
				c1.2,0,2.1-1,2.1-2.1s-1-2.1-2.1-2.1h-1.4c-2.8,0-5,2.2-5,5c0,1.5,0.7,2.9,1.8,3.9c-0.8,2-0.2,4.3,1.4,5.7
				c-0.8,2-0.2,4.3,1.4,5.7c-1,2.6,0.2,5.5,2.8,6.5c0.6,0.2,1.2,0.4,1.9,0.4h0.7V43h4.3v-1.4h0.7c2.8,0,5-2.2,5-5
				c0-0.7-0.1-1.3-0.4-1.9c1.7-1.4,2.3-3.7,1.4-5.7c1.7-1.4,2.3-3.7,1.4-5.7c2.1-1.8,2.4-4.9,0.6-7.1c-1-1.1-2.4-1.8-3.9-1.8h-1.4
				c-1.2,0-2.1,1-2.1,2.1s1,2.1,2.1,2.1h1.4c0.4,0,0.7,0.3,0.7,0.7c0,0.4-0.3,0.7-0.7,0.7h-5v-7.2h10c1.7,0,3.2-1.2,3.5-2.9
				c1.5-0.3,2.6-1.4,2.9-2.9C41.8,6.8,43,5.3,43,3.6V2.9H30.1z M21.5,1.4c1.2,0,2.1,1,2.1,2.1c0,0.8-0.4,1.5-1.1,1.8l-0.4,0.2v3
				h-1.4v-3l-0.4-0.2c-0.7-0.4-1.1-1.1-1.1-1.8C19.4,2.4,20.3,1.4,21.5,1.4z M19.4,40.1h-0.7c-2,0-3.6-1.6-3.6-3.5
				c0-0.4,0.1-0.8,0.2-1.2c0.4,0.2,0.9,0.3,1.4,0.4c-0.1,0.2-0.1,0.5-0.1,0.8c0,1.2,1,2.1,2.1,2.1h0.7c0.4,0,0.7,0.3,0.7,0.7
				S19.7,40.1,19.4,40.1z M17.9,36.6c0-0.4,0.3-0.7,0.7-0.7h0.7v1.4h-0.7C18.2,37.3,17.9,36.9,17.9,36.6z M22.2,41.6h-1.4V41
				c0.9-0.8,1-2.1,0.2-3c-0.1-0.1-0.1-0.1-0.2-0.2v-2h1.4V41.6z M24.4,40.1h-0.7v-1.4h0.7c1.2,0,2.1-1,2.1-2.1c0-1.2-1-2.1-2.1-2.1
				h-7.2c-2,0-3.6-1.6-3.6-3.5c0-0.4,0.1-0.8,0.2-1.2c0.4,0.2,0.9,0.3,1.4,0.4c-0.1,0.2-0.1,0.5-0.1,0.8c0,1.2,1,2.1,2.2,2.1h7.2
				c2,0,3.6,1.6,3.6,3.6C28,38.5,26.3,40.1,24.4,40.1z M23.6,37.3v-1.4h0.7c0.4,0,0.7,0.3,0.7,0.7c0,0.4-0.3,0.7-0.7,0.7H23.6z
				 M16.5,30.8c0-0.4,0.3-0.7,0.7-0.7h2.1v1.4h-2.1C16.8,31.5,16.5,31.2,16.5,30.8z M20.8,31.5v-1.4h1.4v1.4H20.8z M23.6,31.5v-1.4
				h2.1c0.4,0,0.7,0.3,0.7,0.7c0,0.4-0.3,0.7-0.7,0.7H23.6z M28.3,33.4c-0.1-0.1-0.1-0.1-0.2-0.2c-0.3-0.3-0.6-0.6-0.9-0.8
				c0.9-0.8,1-2.1,0.2-3c-0.4-0.5-1-0.7-1.6-0.7h-10c-2,0-3.6-1.6-3.6-3.5c0-0.4,0.1-0.8,0.2-1.2c0.4,0.2,0.9,0.3,1.4,0.4
				c-0.4,1.1,0.2,2.3,1.3,2.8c0.2,0.1,0.5,0.1,0.8,0.1h10c2,0,3.6,1.6,3.6,3.6C29.4,31.8,29,32.7,28.3,33.4z M15.1,25.1
				c0-0.4,0.3-0.7,0.7-0.7h3.6v1.4h-3.6C15.4,25.8,15.1,25.5,15.1,25.1z M20.8,25.8v-1.4h1.4v1.4H20.8z M23.6,25.8v-1.4h3.6
				c0.4,0,0.7,0.3,0.7,0.7s-0.3,0.7-0.7,0.7H23.6z M28.7,17.2h-1.4c-0.4,0-0.7-0.3-0.7-0.7c0-0.4,0.3-0.7,0.7-0.7h1.4
				c2,0,3.6,1.6,3.6,3.6c0,1-0.4,1.9-1.1,2.6c-0.3-0.4-0.7-0.7-1.1-1c0.9-0.8,1-2.1,0.2-3C29.9,17.5,29.3,17.2,28.7,17.2z
				 M27.2,21.5c2,0,3.6,1.6,3.6,3.6c0,1-0.4,1.9-1.1,2.6c-0.3-0.4-0.7-0.7-1.1-1c0.9-0.8,1-2.1,0.2-3c-0.4-0.5-1-0.7-1.6-0.7H14.3
				c-2,0-3.6-1.6-3.6-3.6s1.6-3.6,3.6-3.6h1.4c0.4,0,0.7,0.3,0.7,0.7c0,0.4-0.3,0.7-0.7,0.7h-1.4c-1.2,0-2.1,1-2.1,2.1
				s1,2.1,2.1,2.1H27.2z M20.8,20.1v-7.2h1.4v7.2H20.8z M39.4,5.7h-5.7v1.4h4.9c-0.3,0.9-1.1,1.4-2,1.4h-5.7V10h4.9
				c-0.3,0.9-1.1,1.4-2,1.4H9.3c-0.9,0-1.7-0.6-2-1.4h4.9V8.6H6.4c-0.9,0-1.7-0.6-2-1.4h4.9V5.7H3.6c-0.9,0-1.7-0.6-2-1.4h11.3
				c1.2,0,2.2,1,2.2,2.1c0,2,1.6,3.6,3.6,3.6h5.7c2,0,3.6-1.6,3.6-3.6c0-1.2,1-2.1,2.1-2.1h11.3C41.1,5.2,40.3,5.7,39.4,5.7z"/>
		</g>
	</g>
</g>
</svg>
